<svg width="376" height="56" fill="none" xmlns="http://www.w3.org/2000/svg"><path d="M7.812 26.72V35H1.8V14.48h6.084l5.436 8.28c.816 1.224 1.44 2.256 1.872 3.096h.108V14.48h5.976V35h-6.12l-5.58-8.64-1.62-2.448h-.108l-.036 2.808zm19.175-12.24h14.94v4.32h-8.46v3.744h7.128v3.888h-7.128v4.176h8.424V35H26.987V14.48zm29.58 20.988c-3.577 0-6.265-.84-8.065-2.52-1.776-1.704-2.664-4.428-2.664-8.172 0-3.672.984-6.348 2.952-8.028 1.968-1.68 4.572-2.52 7.812-2.52 6.816 0 10.224 3.396 10.224 10.188 0 3.432-.84 6.132-2.52 8.1-1.656 1.968-4.236 2.952-7.74 2.952zm-.145-4.248c.672 0 1.236-.108 1.692-.324.456-.24.816-.648 1.08-1.224.504-.984.756-2.592.756-4.824 0-2.184-.252-3.768-.756-4.752-.504-1.008-1.428-1.536-2.772-1.584-.504 0-1.032.06-1.584.18-.528.096-.864.24-1.008.432-.288.336-.516 1.056-.684 2.16a27.08 27.08 0 00-.216 3.564c0 2.016.192 3.492.576 4.428.264.696.636 1.2 1.116 1.512.48.288 1.08.432 1.8.432zm21.513-11.196c0 .504.252.9.756 1.188.528.288 1.344.6 2.448.936 1.32.432 2.4.852 3.24 1.26.864.408 1.608 1.044 2.232 1.908.648.864.972 1.992.972 3.384 0 4.464-2.904 6.696-8.712 6.696-.96 0-2.136-.084-3.528-.252a35.469 35.469 0 01-3.744-.648 44.44 44.44 0 01.288-2.196c.168-.984.324-1.716.468-2.196.84.12 2.1.264 3.78.432 1.704.168 2.988.252 3.852.252.504 0 .804-.036.9-.108.144-.096.252-.252.324-.468.096-.24.144-.444.144-.612 0-.48-.228-.84-.684-1.08-.456-.264-1.236-.576-2.34-.936-1.32-.408-2.412-.828-3.276-1.26-.864-.432-1.62-1.104-2.268-2.016-.648-.912-.972-2.112-.972-3.6 0-1.056.24-2.088.72-3.096.48-1.032.972-1.728 1.476-2.088.384-.264 1.176-.516 2.376-.756s2.328-.36 3.384-.36c2.688 0 4.884.252 6.588.756-.024.48-.108 1.14-.252 1.98-.12.84-.252 1.608-.396 2.304l-.828-.036c-3.12-.216-5.112-.324-5.976-.324-.36 0-.564.012-.612.036-.096.048-.18.156-.252.324a1.45 1.45 0 00-.108.576zm23.243-5.652c1.944 0 3.588.18 4.932.54 1.344.36 2.412 1.056 3.204 2.088.816 1.008 1.224 2.46 1.224 4.356 0 .84-.132 1.704-.396 2.592-.24.864-.552 1.62-.936 2.268-.36.648-.684 1.068-.972 1.26-.336.24-1.08.432-2.232.576-1.152.12-2.508.18-4.068.18-.552 0-1.404-.024-2.556-.072V35h-6.48V14.48c2.52-.072 5.28-.108 8.28-.108zm2.7 9.252c.24-.312.36-.936.36-1.872 0-1.224-.264-2.088-.792-2.592-.504-.504-1.392-.756-2.664-.756-.432 0-.9.036-1.404.108v5.472c.24.024.708.036 1.404.036 1.848 0 2.88-.132 3.096-.396zm21.302 11.844c-3.576 0-6.264-.84-8.064-2.52-1.776-1.704-2.664-4.428-2.664-8.172 0-3.672.984-6.348 2.952-8.028 1.968-1.68 4.572-2.52 7.812-2.52 6.816 0 10.224 3.396 10.224 10.188 0 3.432-.84 6.132-2.52 8.1-1.656 1.968-4.236 2.952-7.74 2.952zm-.144-4.248c.672 0 1.236-.108 1.692-.324.456-.24.816-.648 1.08-1.224.504-.984.756-2.592.756-4.824 0-2.184-.252-3.768-.756-4.752-.504-1.008-1.428-1.536-2.772-1.584-.504 0-1.032.06-1.584.18-.528.096-.864.24-1.008.432-.288.336-.516 1.056-.684 2.16a27.08 27.08 0 00-.216 3.564c0 2.016.192 3.492.576 4.428.264.696.636 1.2 1.116 1.512.48.288 1.08.432 1.8.432zM159.329 35h-6.804l-1.224-5.184a93.574 93.574 0 00-.252-.972c-.096-.48-.216-.828-.36-1.044a.998.998 0 00-.612-.468c-.672.024-1.656.036-2.952.036V35h-6.48V14.66a110.09 110.09 0 018.136-.324c2.28 0 4.128.192 5.544.576 1.416.36 2.472.996 3.168 1.908.72.888 1.08 2.112 1.08 3.672 0 1.464-.336 2.616-1.008 3.456-.672.816-1.752 1.308-3.24 1.476v.216c.84.072 1.536.348 2.088.828.576.456.96 1.044 1.152 1.764L159.329 35zm-12.204-11.7c.216.024.636.036 1.26.036 1.848 0 2.928-.156 3.24-.468.288-.288.432-.96.432-2.016 0-.984-.264-1.656-.792-2.016-.504-.36-1.344-.54-2.52-.54-.264 0-.804.024-1.62.072V23.3zM174.632 35h-6.48V18.98h-5.796v-4.5h18.072v4.5h-5.796V35zm45.559-19.1V25h-.949v-8.268h-5.759V25h-.949v-9.1h7.657zm5.671 9.165a3.592 3.592 0 01-1.781-.442 3.313 3.313 0 01-1.248-1.248c-.304-.529-.455-1.127-.455-1.794s.151-1.265.455-1.794a3.22 3.22 0 011.248-1.235 3.592 3.592 0 011.781-.442c.658 0 1.252.147 1.781.442.528.295.94.706 1.235 1.235.303.529.455 1.127.455 1.794s-.152 1.265-.455 1.794a3.23 3.23 0 01-1.235 1.248 3.598 3.598 0 01-1.781.442zm0-.819c.485 0 .918-.108 1.3-.325.39-.225.693-.542.91-.949.216-.407.325-.871.325-1.391s-.109-.984-.325-1.391a2.26 2.26 0 00-.91-.936 2.51 2.51 0 00-1.3-.338c-.486 0-.923.113-1.313.338a2.36 2.36 0 00-.91.936 2.912 2.912 0 00-.325 1.391c0 .52.108.984.325 1.391.225.407.528.724.91.949.39.217.827.325 1.313.325zm8.303.819c-.676 0-1.282-.147-1.82-.442a3.233 3.233 0 01-1.248-1.235 3.615 3.615 0 01-.455-1.807c0-.667.152-1.265.455-1.794.304-.529.72-.94 1.248-1.235.538-.295 1.144-.442 1.82-.442.59 0 1.114.117 1.573.351.468.225.837.559 1.105 1.001l-.689.468a2.103 2.103 0 00-.858-.754 2.49 2.49 0 00-1.131-.26c-.494 0-.94.113-1.339.338-.39.217-.697.529-.923.936a2.924 2.924 0 00-.325 1.391c0 .529.109.997.325 1.404.226.399.533.71.923.936.399.217.845.325 1.339.325.408 0 .785-.082 1.131-.247.347-.165.633-.416.858-.754l.689.468c-.268.442-.637.78-1.105 1.014a3.579 3.579 0 01-1.573.338zm9.148-6.084h-2.587V25h-.923v-6.019h-2.587v-.819h6.097v.819zm3.688-.871c.893 0 1.577.225 2.054.676.477.442.715 1.1.715 1.976V25h-.884v-1.066a2.112 2.112 0 01-.923.832c-.399.2-.875.299-1.43.299-.763 0-1.369-.182-1.82-.546-.451-.364-.676-.845-.676-1.443 0-.58.208-1.049.624-1.404.425-.355 1.096-.533 2.015-.533h2.171v-.416c0-.59-.165-1.036-.494-1.339-.329-.312-.81-.468-1.443-.468-.433 0-.849.074-1.248.221a3.055 3.055 0 00-1.027.585l-.416-.689a3.61 3.61 0 011.248-.676 4.74 4.74 0 011.534-.247zm-.325 6.227c.52 0 .966-.117 1.339-.351.373-.243.65-.59.832-1.04v-1.118h-2.145c-1.17 0-1.755.407-1.755 1.222 0 .399.152.715.455.949.303.225.728.338 1.274.338zm9.906-2.873c.927.217 1.391.776 1.391 1.677 0 .598-.221 1.057-.663 1.378-.442.32-1.101.481-1.976.481h-3.107v-6.838h3.016c.78 0 1.391.152 1.833.455.442.303.663.737.663 1.3 0 .373-.104.693-.312.962-.199.26-.481.455-.845.585zm-3.458-.26h2.054c.529 0 .932-.1 1.209-.299.286-.2.429-.49.429-.871s-.143-.667-.429-.858c-.277-.19-.68-.286-1.209-.286h-2.054v2.314zm2.171 3.068c.589 0 1.031-.095 1.326-.286.295-.19.442-.49.442-.897 0-.407-.134-.706-.403-.897-.269-.2-.693-.299-1.274-.299h-2.262v2.379h2.171zm10.431-6.11V25h-.923v-6.019h-3.276l-.091 1.69c-.069 1.421-.234 2.513-.494 3.276-.26.763-.723 1.144-1.391 1.144-.182 0-.403-.035-.663-.104l.065-.793c.156.035.265.052.325.052.356 0 .624-.165.806-.494.182-.33.304-.737.364-1.222.061-.485.113-1.127.156-1.924l.117-2.444h5.005zm7.876 0V25h-.845v-2.262h-2.405L268.766 25h-1.001l1.703-2.392c-.529-.147-.936-.399-1.222-.754-.286-.355-.429-.806-.429-1.352 0-.763.26-1.343.78-1.742s1.231-.598 2.132-.598h2.873zm-4.849 2.366c0 1.014.646 1.521 1.937 1.521h2.067v-3.068h-2.002c-1.335 0-2.002.516-2.002 1.547zm13.461 1.339h-5.72c.052.71.325 1.287.819 1.729.494.433 1.118.65 1.872.65a3.03 3.03 0 001.17-.221c.355-.156.663-.381.923-.676l.52.598a2.92 2.92 0 01-1.144.832 3.8 3.8 0 01-1.495.286c-.702 0-1.326-.147-1.872-.442a3.291 3.291 0 01-1.261-1.248c-.303-.529-.455-1.127-.455-1.794s.143-1.265.429-1.794c.295-.529.693-.94 1.196-1.235a3.372 3.372 0 011.716-.442c.633 0 1.2.147 1.703.442a3.12 3.12 0 011.183 1.235c.286.52.429 1.118.429 1.794l-.013.286zm-3.302-2.964c-.659 0-1.213.212-1.664.637-.442.416-.693.962-.754 1.638h4.849c-.061-.676-.316-1.222-.767-1.638-.442-.425-.997-.637-1.664-.637zm13.002-.741V25h-.845v-5.408l-2.769 4.576h-.416l-2.769-4.589V25h-.845v-6.838h.936l2.899 4.927 2.951-4.927h.858zm6.029 0h.923v3.029h4.303v-3.029h.923V25h-.923v-3.016h-4.303V25h-.923v-6.838zm11.125-.052c.893 0 1.578.225 2.054.676.477.442.715 1.1.715 1.976V25h-.884v-1.066a2.106 2.106 0 01-.923.832c-.398.2-.875.299-1.43.299-.762 0-1.369-.182-1.82-.546-.45-.364-.676-.845-.676-1.443 0-.58.208-1.049.624-1.404.425-.355 1.097-.533 2.015-.533h2.171v-.416c0-.59-.164-1.036-.494-1.339-.329-.312-.81-.468-1.443-.468-.433 0-.849.074-1.248.221a3.065 3.065 0 00-1.027.585l-.416-.689a3.61 3.61 0 011.248-.676 4.745 4.745 0 011.534-.247zm-.325 6.227c.52 0 .967-.117 1.339-.351.373-.243.65-.59.832-1.04v-1.118h-2.145c-1.17 0-1.755.407-1.755 1.222 0 .399.152.715.455.949.304.225.728.338 1.274.338zm11.687-6.175V25h-.923v-6.019h-4.29V25h-.923v-6.838h6.136zm5.445 6.903a3.598 3.598 0 01-1.781-.442 3.327 3.327 0 01-1.248-1.248c-.303-.529-.455-1.127-.455-1.794s.152-1.265.455-1.794c.304-.529.72-.94 1.248-1.235a3.598 3.598 0 011.781-.442c.659 0 1.253.147 1.781.442.529.295.941.706 1.235 1.235.304.529.455 1.127.455 1.794s-.151 1.265-.455 1.794a3.217 3.217 0 01-1.235 1.248 3.592 3.592 0 01-1.781.442zm0-.819c.486 0 .919-.108 1.3-.325.39-.225.694-.542.91-.949.217-.407.325-.871.325-1.391s-.108-.984-.325-1.391a2.253 2.253 0 00-.91-.936 2.504 2.504 0 00-1.3-.338 2.58 2.58 0 00-1.313.338 2.373 2.373 0 00-.91.936 2.924 2.924 0 00-.325 1.391c0 .52.109.984.325 1.391.226.407.529.724.91.949.39.217.828.325 1.313.325zm10.996-6.084V25h-.923v-6.019h-3.276l-.091 1.69c-.07 1.421-.234 2.513-.494 3.276-.26.763-.724 1.144-1.391 1.144-.182 0-.403-.035-.663-.104l.065-.793c.156.035.264.052.325.052.355 0 .624-.165.806-.494.182-.33.303-.737.364-1.222.06-.485.112-1.127.156-1.924l.117-2.444h5.005zm5.562 2.418c.858.009 1.508.2 1.95.572.45.373.676.91.676 1.612 0 .728-.243 1.287-.728 1.677-.477.39-1.17.58-2.08.572L339.495 25v-6.838h.923v2.392l2.015.026zm-.234 3.731c.632.009 1.109-.117 1.43-.377.329-.269.494-.659.494-1.17 0-.503-.161-.875-.481-1.118-.321-.243-.802-.368-1.443-.377l-1.781-.026v3.042l1.781.026zm4.621-6.149h.923v3.029h4.303v-3.029h.923V25h-.923v-3.016h-4.303V25h-.923v-6.838zm11.645 2.418c.858.009 1.513.2 1.963.572.451.373.676.91.676 1.612 0 .728-.242 1.287-.728 1.677-.485.39-1.178.58-2.08.572L355.592 25v-6.838h.923v2.392l1.95.026zm3.783-2.418h.923V25h-.923v-6.838zm-4.004 6.149c.633.009 1.11-.117 1.43-.377.33-.269.494-.659.494-1.17 0-.503-.16-.875-.481-1.118-.32-.243-.801-.368-1.443-.377l-1.729-.026v3.042l1.729.026zm13.535-2.444h-5.72c.052.71.325 1.287.819 1.729.494.433 1.118.65 1.872.65a3.03 3.03 0 001.17-.221c.356-.156.663-.381.923-.676l.52.598a2.912 2.912 0 01-1.144.832c-.45.19-.949.286-1.495.286-.702 0-1.326-.147-1.872-.442a3.298 3.298 0 01-1.261-1.248c-.303-.529-.455-1.127-.455-1.794s.143-1.265.429-1.794c.295-.529.694-.94 1.196-1.235a3.378 3.378 0 011.716-.442c.633 0 1.201.147 1.703.442a3.12 3.12 0 011.183 1.235c.286.52.429 1.118.429 1.794l-.013.286zm-3.302-2.964c-.658 0-1.213.212-1.664.637-.442.416-.693.962-.754 1.638h4.849c-.06-.676-.316-1.222-.767-1.638-.442-.425-.996-.637-1.664-.637zM218.449 34.162V41h-.923v-6.019h-4.29V41h-.923v-6.838h6.136zm5.445 6.903a3.592 3.592 0 01-1.781-.442 3.313 3.313 0 01-1.248-1.248c-.304-.529-.455-1.127-.455-1.794s.151-1.265.455-1.794a3.22 3.22 0 011.248-1.235 3.592 3.592 0 011.781-.442c.658 0 1.252.147 1.781.442.528.295.94.706 1.235 1.235.303.529.455 1.127.455 1.794s-.152 1.265-.455 1.794a3.23 3.23 0 01-1.235 1.248 3.598 3.598 0 01-1.781.442zm0-.819c.485 0 .918-.108 1.3-.325.39-.225.693-.542.91-.949.216-.407.325-.871.325-1.391s-.109-.984-.325-1.391a2.26 2.26 0 00-.91-.936 2.51 2.51 0 00-1.3-.338c-.486 0-.923.113-1.313.338a2.36 2.36 0 00-.91.936 2.912 2.912 0 00-.325 1.391c0 .52.108.984.325 1.391.225.407.528.724.91.949.39.217.827.325 1.313.325zm7.926-2.288h-1.56V41h-.923v-6.838h.923v3.003h1.573l2.405-3.003h1.001l-2.691 3.315L235.434 41h-1.092l-2.522-3.042zm8.594-3.848c.641 0 1.222.147 1.742.442.52.286.927.693 1.222 1.222.295.529.442 1.131.442 1.807 0 .685-.147 1.291-.442 1.82-.295.529-.702.94-1.222 1.235-.511.286-1.092.429-1.742.429a3.325 3.325 0 01-1.508-.338 2.91 2.91 0 01-1.092-1.014v3.809h-.923v-9.36h.884v1.352c.277-.45.641-.797 1.092-1.04a3.259 3.259 0 011.547-.364zm-.065 6.136c.477 0 .91-.108 1.3-.325.39-.225.693-.542.91-.949.225-.407.338-.871.338-1.391s-.113-.98-.338-1.378a2.344 2.344 0 00-.91-.949 2.55 2.55 0 00-1.3-.338 2.58 2.58 0 00-1.313.338 2.46 2.46 0 00-.91.949c-.217.399-.325.858-.325 1.378 0 .52.108.984.325 1.391.225.407.529.724.91.949.39.217.828.325 1.313.325zm8.327-3.666c.858.009 1.513.2 1.963.572.451.373.676.91.676 1.612 0 .728-.242 1.287-.728 1.677-.485.39-1.178.58-2.08.572L245.803 41v-6.838h.923v2.392l1.95.026zm3.783-2.418h.923V41h-.923v-6.838zm-4.004 6.149c.633.009 1.11-.117 1.43-.377.33-.269.494-.659.494-1.17 0-.503-.16-.875-.481-1.118-.32-.243-.801-.368-1.443-.377l-1.729-.026v3.042l1.729.026zm12.365-5.33h-2.587V41h-.923v-6.019h-2.587v-.819h6.097v.819zm1.335-.819h.923v5.434l4.563-5.434h.819V41h-.923v-5.434L262.987 41h-.832v-6.838zm14.202 0V41h-.845v-2.262h-2.405L271.521 41h-1.001l1.703-2.392c-.529-.147-.936-.399-1.222-.754-.286-.355-.429-.806-.429-1.352 0-.763.26-1.343.78-1.742s1.231-.598 2.132-.598h2.873zm-4.849 2.366c0 1.014.646 1.521 1.937 1.521h2.067v-3.068h-2.002c-1.335 0-2.002.516-2.002 1.547zm13.743 4.537c-.676 0-1.283-.147-1.82-.442a3.22 3.22 0 01-1.248-1.235 3.615 3.615 0 01-.455-1.807c0-.667.152-1.265.455-1.794a3.22 3.22 0 011.248-1.235c.537-.295 1.144-.442 1.82-.442.589 0 1.114.117 1.573.351.468.225.836.559 1.105 1.001l-.689.468a2.103 2.103 0 00-.858-.754 2.496 2.496 0 00-1.131-.26c-.494 0-.94.113-1.339.338-.39.217-.698.529-.923.936a2.912 2.912 0 00-.325 1.391c0 .529.108.997.325 1.404.225.399.533.71.923.936.399.217.845.325 1.339.325a2.6 2.6 0 001.131-.247c.347-.165.633-.416.858-.754l.689.468c-.269.442-.637.78-1.105 1.014a3.579 3.579 0 01-1.573.338zm13.445-.897V41h-6.383v-.663l3.783-3.705c.476-.468.797-.871.962-1.209.173-.347.26-.693.26-1.04 0-.537-.187-.953-.559-1.248-.364-.303-.889-.455-1.573-.455-1.066 0-1.894.338-2.483 1.014l-.663-.572a3.497 3.497 0 011.352-.962c.554-.225 1.178-.338 1.872-.338.927 0 1.659.221 2.197.663.546.433.819 1.031.819 1.794 0 .468-.104.919-.312 1.352-.208.433-.603.932-1.183 1.495l-3.094 3.042h5.005zm4.751.91a3.3 3.3 0 01-1.885-.559c-.546-.373-.975-.906-1.287-1.599-.304-.702-.455-1.525-.455-2.47 0-.945.151-1.764.455-2.457.312-.702.741-1.24 1.287-1.612a3.3 3.3 0 011.885-.559c.702 0 1.326.186 1.872.559.554.373.988.91 1.3 1.612.312.693.468 1.512.468 2.457 0 .945-.156 1.768-.468 2.47-.312.693-.746 1.226-1.3 1.599a3.241 3.241 0 01-1.872.559zm0-.858c.528 0 .992-.147 1.391-.442.407-.295.723-.724.949-1.287.225-.563.338-1.244.338-2.041 0-.797-.113-1.478-.338-2.041-.226-.563-.542-.992-.949-1.287a2.279 2.279 0 00-1.391-.442 2.33 2.33 0 00-1.404.442c-.399.295-.711.724-.936 1.287-.226.563-.338 1.244-.338 2.041 0 .797.112 1.478.338 2.041.225.563.537.992.936 1.287a2.33 2.33 0 001.404.442zm7.477-8.32V41h-.936v-8.268h-2.145V31.9h3.081zm5.945 3.653c.598 0 1.127.113 1.586.338.468.225.832.546 1.092.962.26.407.39.884.39 1.43 0 .555-.134 1.044-.403 1.469a2.696 2.696 0 01-1.118.988 3.612 3.612 0 01-1.586.338c-1.205 0-2.128-.394-2.769-1.183-.641-.797-.962-1.92-.962-3.367 0-1.014.173-1.872.52-2.574.347-.702.832-1.23 1.456-1.586.624-.364 1.352-.546 2.184-.546.901 0 1.621.165 2.158.494l-.377.754c-.433-.286-1.023-.429-1.768-.429-1.005 0-1.794.32-2.366.962-.572.633-.858 1.556-.858 2.769 0 .217.013.464.039.741a2.419 2.419 0 011.079-1.144c.494-.277 1.062-.416 1.703-.416zm-.078 4.732c.659 0 1.192-.178 1.599-.533.416-.364.624-.845.624-1.443 0-.598-.208-1.075-.624-1.43-.407-.355-.962-.533-1.664-.533-.459 0-.867.087-1.222.26-.347.173-.62.412-.819.715a1.81 1.81 0 00-.299 1.014c0 .347.091.667.273.962.191.295.468.533.832.715.364.182.797.273 1.3.273zm13.105-5.304h-3.913V41h-.923v-6.838h4.836v.819zm3.838 6.084a3.592 3.592 0 01-1.781-.442 3.313 3.313 0 01-1.248-1.248c-.304-.529-.455-1.127-.455-1.794s.151-1.265.455-1.794a3.22 3.22 0 011.248-1.235 3.592 3.592 0 011.781-.442c.658 0 1.252.147 1.781.442.528.295.94.706 1.235 1.235.303.529.455 1.127.455 1.794s-.152 1.265-.455 1.794a3.23 3.23 0 01-1.235 1.248 3.598 3.598 0 01-1.781.442zm0-.819c.485 0 .918-.108 1.3-.325.39-.225.693-.542.91-.949.216-.407.325-.871.325-1.391s-.109-.984-.325-1.391a2.26 2.26 0 00-.91-.936 2.51 2.51 0 00-1.3-.338c-.486 0-.923.113-1.313.338a2.36 2.36 0 00-.91.936 2.912 2.912 0 00-.325 1.391c0 .52.108.984.325 1.391.225.407.528.724.91.949.39.217.827.325 1.313.325zm12.074-.052v2.457h-.871V41h-6.123v1.651h-.871v-2.457h.39c.46-.026.772-.364.936-1.014.165-.65.278-1.56.338-2.73l.091-2.288h5.044v6.032h1.066zm-5.356-3.692c-.043.97-.125 1.772-.247 2.405-.121.624-.338 1.053-.65 1.287h4.264v-5.213h-3.289l-.078 1.521zm9.508-2.392c.893 0 1.577.225 2.054.676.477.442.715 1.1.715 1.976V41h-.884v-1.066a2.112 2.112 0 01-.923.832c-.399.2-.875.299-1.43.299-.763 0-1.369-.182-1.82-.546-.451-.364-.676-.845-.676-1.443 0-.58.208-1.049.624-1.404.425-.355 1.096-.533 2.015-.533h2.171v-.416c0-.59-.165-1.036-.494-1.339-.329-.312-.81-.468-1.443-.468-.433 0-.849.074-1.248.221a3.055 3.055 0 00-1.027.585l-.416-.689a3.61 3.61 0 011.248-.676 4.74 4.74 0 011.534-.247zm-.325 6.227c.52 0 .966-.117 1.339-.351.373-.243.65-.59.832-1.04v-1.118h-2.145c-1.17 0-1.755.407-1.755 1.222 0 .399.152.715.455.949.303.225.728.338 1.274.338z" fill="#fff"/><path opacity=".17" stroke="#717171" d="M196.5 4v48"/></svg>