<svg width="376" height="56" viewBox="0 0 376 56" fill="none" xmlns="http://www.w3.org/2000/svg">
<path d="M7.812 26.72V35H1.8V14.48H7.884L13.32 22.76C14.136 23.984 14.76 25.016 15.192 25.856H15.3V22.4V14.48H21.276V35H15.156L9.576 26.36L7.956 23.912H7.848L7.812 26.72ZM26.9873 14.48H41.9273V18.8H33.4673V22.544H40.5953V26.432H33.4673V30.608H41.8913V35H26.9873V14.48ZM56.5661 35.468C52.9901 35.468 50.3021 34.628 48.5021 32.948C46.7261 31.244 45.8381 28.52 45.8381 24.776C45.8381 21.104 46.8221 18.428 48.7901 16.748C50.7581 15.068 53.3621 14.228 56.6021 14.228C63.4181 14.228 66.8261 17.624 66.8261 24.416C66.8261 27.848 65.9861 30.548 64.3061 32.516C62.6501 34.484 60.0701 35.468 56.5661 35.468ZM56.4221 31.22C57.0941 31.22 57.6581 31.112 58.1141 30.896C58.5701 30.656 58.9301 30.248 59.1941 29.672C59.6981 28.688 59.9501 27.08 59.9501 24.848C59.9501 22.664 59.6981 21.08 59.1941 20.096C58.6901 19.088 57.7661 18.56 56.4221 18.512C55.9181 18.512 55.3901 18.572 54.8381 18.692C54.3101 18.788 53.9741 18.932 53.8301 19.124C53.5421 19.46 53.3141 20.18 53.1461 21.284C53.0021 22.364 52.9301 23.552 52.9301 24.848C52.9301 26.864 53.1221 28.34 53.5061 29.276C53.7701 29.972 54.1421 30.476 54.6221 30.788C55.1021 31.076 55.7021 31.22 56.4221 31.22ZM77.9349 20.024C77.9349 20.528 78.1869 20.924 78.6909 21.212C79.2189 21.5 80.0349 21.812 81.1389 22.148C82.4589 22.58 83.5389 23 84.3789 23.408C85.2429 23.816 85.9869 24.452 86.6109 25.316C87.2589 26.18 87.5829 27.308 87.5829 28.7C87.5829 33.164 84.6789 35.396 78.8709 35.396C77.9109 35.396 76.7349 35.312 75.3429 35.144C73.9749 34.976 72.7269 34.76 71.5989 34.496C71.6469 33.992 71.7429 33.26 71.8869 32.3C72.0549 31.316 72.2109 30.584 72.3549 30.104C73.1949 30.224 74.4549 30.368 76.1349 30.536C77.8389 30.704 79.1229 30.788 79.9869 30.788C80.4909 30.788 80.7909 30.752 80.8869 30.68C81.0309 30.584 81.1389 30.428 81.2109 30.212C81.3069 29.972 81.3549 29.768 81.3549 29.6C81.3549 29.12 81.1269 28.76 80.6709 28.52C80.2149 28.256 79.4349 27.944 78.3309 27.584C77.0109 27.176 75.9189 26.756 75.0549 26.324C74.1909 25.892 73.4349 25.22 72.7869 24.308C72.1389 23.396 71.8149 22.196 71.8149 20.708C71.8149 19.652 72.0549 18.62 72.5349 17.612C73.0149 16.58 73.5069 15.884 74.0109 15.524C74.3949 15.26 75.1869 15.008 76.3869 14.768C77.5869 14.528 78.7149 14.408 79.7709 14.408C82.4589 14.408 84.6549 14.66 86.3589 15.164C86.3349 15.644 86.2509 16.304 86.1069 17.144C85.9869 17.984 85.8549 18.752 85.7109 19.448L84.8829 19.412C81.7629 19.196 79.7709 19.088 78.9069 19.088C78.5469 19.088 78.3429 19.1 78.2949 19.124C78.1989 19.172 78.1149 19.28 78.0429 19.448C77.9709 19.616 77.9349 19.808 77.9349 20.024ZM101.178 14.372C103.122 14.372 104.766 14.552 106.11 14.912C107.454 15.272 108.522 15.968 109.314 17C110.13 18.008 110.538 19.46 110.538 21.356C110.538 22.196 110.406 23.06 110.142 23.948C109.902 24.812 109.59 25.568 109.206 26.216C108.846 26.864 108.522 27.284 108.234 27.476C107.898 27.716 107.154 27.908 106.002 28.052C104.85 28.172 103.494 28.232 101.934 28.232C101.382 28.232 100.53 28.208 99.3783 28.16V35H92.8983V14.48C95.4183 14.408 98.1783 14.372 101.178 14.372ZM103.878 23.624C104.118 23.312 104.238 22.688 104.238 21.752C104.238 20.528 103.974 19.664 103.446 19.16C102.942 18.656 102.054 18.404 100.782 18.404C100.35 18.404 99.8823 18.44 99.3783 18.512V23.984C99.6183 24.008 100.086 24.02 100.782 24.02C102.63 24.02 103.662 23.888 103.878 23.624ZM125.18 35.468C121.604 35.468 118.916 34.628 117.116 32.948C115.34 31.244 114.452 28.52 114.452 24.776C114.452 21.104 115.436 18.428 117.404 16.748C119.372 15.068 121.976 14.228 125.216 14.228C132.032 14.228 135.44 17.624 135.44 24.416C135.44 27.848 134.6 30.548 132.92 32.516C131.264 34.484 128.684 35.468 125.18 35.468ZM125.036 31.22C125.708 31.22 126.272 31.112 126.728 30.896C127.184 30.656 127.544 30.248 127.808 29.672C128.312 28.688 128.564 27.08 128.564 24.848C128.564 22.664 128.312 21.08 127.808 20.096C127.304 19.088 126.38 18.56 125.036 18.512C124.532 18.512 124.004 18.572 123.452 18.692C122.924 18.788 122.588 18.932 122.444 19.124C122.156 19.46 121.928 20.18 121.76 21.284C121.616 22.364 121.544 23.552 121.544 24.848C121.544 26.864 121.736 28.34 122.12 29.276C122.384 29.972 122.756 30.476 123.236 30.788C123.716 31.076 124.316 31.22 125.036 31.22ZM159.329 35H152.525L151.301 29.816C151.253 29.624 151.169 29.3 151.049 28.844C150.953 28.364 150.833 28.016 150.689 27.8C150.545 27.56 150.341 27.404 150.077 27.332C149.405 27.356 148.421 27.368 147.125 27.368V35H140.645V14.66C143.549 14.444 146.261 14.336 148.781 14.336C151.061 14.336 152.909 14.528 154.325 14.912C155.741 15.272 156.797 15.908 157.493 16.82C158.213 17.708 158.573 18.932 158.573 20.492C158.573 21.956 158.237 23.108 157.565 23.948C156.893 24.764 155.813 25.256 154.325 25.424V25.64C155.165 25.712 155.861 25.988 156.413 26.468C156.989 26.924 157.373 27.512 157.565 28.232L159.329 35ZM147.125 23.3C147.341 23.324 147.761 23.336 148.385 23.336C150.233 23.336 151.313 23.18 151.625 22.868C151.913 22.58 152.057 21.908 152.057 20.852C152.057 19.868 151.793 19.196 151.265 18.836C150.761 18.476 149.921 18.296 148.745 18.296C148.481 18.296 147.941 18.32 147.125 18.368V23.3ZM174.632 35H168.152V18.98H162.356V14.48H180.428V18.98H174.632V35Z" fill="white"/>
<path d="M220.191 15.9V25H219.242V16.732H213.483V25H212.534V15.9H220.191ZM225.862 25.065C225.203 25.065 224.609 24.9177 224.081 24.623C223.552 24.3197 223.136 23.9037 222.833 23.375C222.529 22.8463 222.378 22.2483 222.378 21.581C222.378 20.9137 222.529 20.3157 222.833 19.787C223.136 19.2583 223.552 18.8467 224.081 18.552C224.609 18.2573 225.203 18.11 225.862 18.11C226.52 18.11 227.114 18.2573 227.643 18.552C228.171 18.8467 228.583 19.2583 228.878 19.787C229.181 20.3157 229.333 20.9137 229.333 21.581C229.333 22.2483 229.181 22.8463 228.878 23.375C228.583 23.9037 228.171 24.3197 227.643 24.623C227.114 24.9177 226.52 25.065 225.862 25.065ZM225.862 24.246C226.347 24.246 226.78 24.1377 227.162 23.921C227.552 23.6957 227.855 23.3793 228.072 22.972C228.288 22.5647 228.397 22.101 228.397 21.581C228.397 21.061 228.288 20.5973 228.072 20.19C227.855 19.7827 227.552 19.4707 227.162 19.254C226.78 19.0287 226.347 18.916 225.862 18.916C225.376 18.916 224.939 19.0287 224.549 19.254C224.167 19.4707 223.864 19.7827 223.639 20.19C223.422 20.5973 223.314 21.061 223.314 21.581C223.314 22.101 223.422 22.5647 223.639 22.972C223.864 23.3793 224.167 23.6957 224.549 23.921C224.939 24.1377 225.376 24.246 225.862 24.246ZM234.165 25.065C233.489 25.065 232.883 24.9177 232.345 24.623C231.817 24.3283 231.401 23.9167 231.097 23.388C230.794 22.8507 230.642 22.2483 230.642 21.581C230.642 20.9137 230.794 20.3157 231.097 19.787C231.401 19.2583 231.817 18.8467 232.345 18.552C232.883 18.2573 233.489 18.11 234.165 18.11C234.755 18.11 235.279 18.227 235.738 18.461C236.206 18.6863 236.575 19.02 236.843 19.462L236.154 19.93C235.929 19.592 235.643 19.3407 235.296 19.176C234.95 19.0027 234.573 18.916 234.165 18.916C233.671 18.916 233.225 19.0287 232.826 19.254C232.436 19.4707 232.129 19.7827 231.903 20.19C231.687 20.5973 231.578 21.061 231.578 21.581C231.578 22.1097 231.687 22.5777 231.903 22.985C232.129 23.3837 232.436 23.6957 232.826 23.921C233.225 24.1377 233.671 24.246 234.165 24.246C234.573 24.246 234.95 24.1637 235.296 23.999C235.643 23.8343 235.929 23.583 236.154 23.245L236.843 23.713C236.575 24.155 236.206 24.493 235.738 24.727C235.27 24.9523 234.746 25.065 234.165 25.065ZM243.313 18.981H240.726V25H239.803V18.981H237.216V18.162H243.313V18.981ZM247.001 18.11C247.894 18.11 248.578 18.3353 249.055 18.786C249.532 19.228 249.77 19.8867 249.77 20.762V25H248.886V23.934C248.678 24.2893 248.37 24.5667 247.963 24.766C247.564 24.9653 247.088 25.065 246.533 25.065C245.77 25.065 245.164 24.883 244.713 24.519C244.262 24.155 244.037 23.674 244.037 23.076C244.037 22.4953 244.245 22.0273 244.661 21.672C245.086 21.3167 245.757 21.139 246.676 21.139H248.847V20.723C248.847 20.1337 248.682 19.6873 248.353 19.384C248.024 19.072 247.543 18.916 246.91 18.916C246.477 18.916 246.061 18.9897 245.662 19.137C245.263 19.2757 244.921 19.4707 244.635 19.722L244.219 19.033C244.566 18.7383 244.982 18.513 245.467 18.357C245.952 18.1923 246.464 18.11 247.001 18.11ZM246.676 24.337C247.196 24.337 247.642 24.22 248.015 23.986C248.388 23.7433 248.665 23.3967 248.847 22.946V21.828H246.702C245.532 21.828 244.947 22.2353 244.947 23.05C244.947 23.4487 245.099 23.765 245.402 23.999C245.705 24.2243 246.13 24.337 246.676 24.337ZM256.582 21.464C257.509 21.6807 257.973 22.2397 257.973 23.141C257.973 23.739 257.752 24.1983 257.31 24.519C256.868 24.8397 256.209 25 255.334 25H252.227V18.162H255.243C256.023 18.162 256.634 18.3137 257.076 18.617C257.518 18.9203 257.739 19.3537 257.739 19.917C257.739 20.2897 257.635 20.6103 257.427 20.879C257.228 21.139 256.946 21.334 256.582 21.464ZM253.124 21.204H255.178C255.707 21.204 256.11 21.1043 256.387 20.905C256.673 20.7057 256.816 20.4153 256.816 20.034C256.816 19.6527 256.673 19.3667 256.387 19.176C256.11 18.9853 255.707 18.89 255.178 18.89H253.124V21.204ZM255.295 24.272C255.884 24.272 256.326 24.1767 256.621 23.986C256.916 23.7953 257.063 23.4963 257.063 23.089C257.063 22.6817 256.929 22.3827 256.66 22.192C256.391 21.9927 255.967 21.893 255.386 21.893H253.124V24.272H255.295ZM265.726 18.162V25H264.803V18.981H261.527L261.436 20.671C261.367 22.0923 261.202 23.1843 260.942 23.947C260.682 24.7097 260.219 25.091 259.551 25.091C259.369 25.091 259.148 25.0563 258.888 24.987L258.953 24.194C259.109 24.2287 259.218 24.246 259.278 24.246C259.634 24.246 259.902 24.0813 260.084 23.752C260.266 23.4227 260.388 23.0153 260.448 22.53C260.509 22.0447 260.561 21.4033 260.604 20.606L260.721 18.162H265.726ZM273.602 18.162V25H272.757V22.738H270.612H270.352L268.766 25H267.765L269.468 22.608C268.939 22.4607 268.532 22.2093 268.246 21.854C267.96 21.4987 267.817 21.048 267.817 20.502C267.817 19.7393 268.077 19.1587 268.597 18.76C269.117 18.3613 269.828 18.162 270.729 18.162H273.602ZM268.753 20.528C268.753 21.542 269.399 22.049 270.69 22.049H272.757V18.981H270.755C269.42 18.981 268.753 19.4967 268.753 20.528ZM282.214 21.867H276.494C276.546 22.5777 276.819 23.154 277.313 23.596C277.807 24.0293 278.431 24.246 279.185 24.246C279.61 24.246 280 24.1723 280.355 24.025C280.71 23.869 281.018 23.6437 281.278 23.349L281.798 23.947C281.495 24.311 281.113 24.5883 280.654 24.779C280.203 24.9697 279.705 25.065 279.159 25.065C278.457 25.065 277.833 24.9177 277.287 24.623C276.75 24.3197 276.329 23.9037 276.026 23.375C275.723 22.8463 275.571 22.2483 275.571 21.581C275.571 20.9137 275.714 20.3157 276 19.787C276.295 19.2583 276.693 18.8467 277.196 18.552C277.707 18.2573 278.279 18.11 278.912 18.11C279.545 18.11 280.112 18.2573 280.615 18.552C281.118 18.8467 281.512 19.2583 281.798 19.787C282.084 20.307 282.227 20.905 282.227 21.581L282.214 21.867ZM278.912 18.903C278.253 18.903 277.699 19.1153 277.248 19.54C276.806 19.956 276.555 20.502 276.494 21.178H281.343C281.282 20.502 281.027 19.956 280.576 19.54C280.134 19.1153 279.579 18.903 278.912 18.903ZM291.914 18.162V25H291.069V19.592L288.3 24.168H287.884L285.115 19.579V25H284.27V18.162H285.206L288.105 23.089L291.056 18.162H291.914ZM297.943 18.162H298.866V21.191H303.169V18.162H304.092V25H303.169V21.984H298.866V25H297.943V18.162ZM309.068 18.11C309.961 18.11 310.646 18.3353 311.122 18.786C311.599 19.228 311.837 19.8867 311.837 20.762V25H310.953V23.934C310.745 24.2893 310.438 24.5667 310.03 24.766C309.632 24.9653 309.155 25.065 308.6 25.065C307.838 25.065 307.231 24.883 306.78 24.519C306.33 24.155 306.104 23.674 306.104 23.076C306.104 22.4953 306.312 22.0273 306.728 21.672C307.153 21.3167 307.825 21.139 308.743 21.139H310.914V20.723C310.914 20.1337 310.75 19.6873 310.42 19.384C310.091 19.072 309.61 18.916 308.977 18.916C308.544 18.916 308.128 18.9897 307.729 19.137C307.331 19.2757 306.988 19.4707 306.702 19.722L306.286 19.033C306.633 18.7383 307.049 18.513 307.534 18.357C308.02 18.1923 308.531 18.11 309.068 18.11ZM308.743 24.337C309.263 24.337 309.71 24.22 310.082 23.986C310.455 23.7433 310.732 23.3967 310.914 22.946V21.828H308.769C307.599 21.828 307.014 22.2353 307.014 23.05C307.014 23.4487 307.166 23.765 307.469 23.999C307.773 24.2243 308.197 24.337 308.743 24.337ZM320.43 18.162V25H319.507V18.981H315.217V25H314.294V18.162H320.43ZM325.875 25.065C325.217 25.065 324.623 24.9177 324.094 24.623C323.566 24.3197 323.15 23.9037 322.846 23.375C322.543 22.8463 322.391 22.2483 322.391 21.581C322.391 20.9137 322.543 20.3157 322.846 19.787C323.15 19.2583 323.566 18.8467 324.094 18.552C324.623 18.2573 325.217 18.11 325.875 18.11C326.534 18.11 327.128 18.2573 327.656 18.552C328.185 18.8467 328.597 19.2583 328.891 19.787C329.195 20.3157 329.346 20.9137 329.346 21.581C329.346 22.2483 329.195 22.8463 328.891 23.375C328.597 23.9037 328.185 24.3197 327.656 24.623C327.128 24.9177 326.534 25.065 325.875 25.065ZM325.875 24.246C326.361 24.246 326.794 24.1377 327.175 23.921C327.565 23.6957 327.869 23.3793 328.085 22.972C328.302 22.5647 328.41 22.101 328.41 21.581C328.41 21.061 328.302 20.5973 328.085 20.19C327.869 19.7827 327.565 19.4707 327.175 19.254C326.794 19.0287 326.361 18.916 325.875 18.916C325.39 18.916 324.952 19.0287 324.562 19.254C324.181 19.4707 323.878 19.7827 323.652 20.19C323.436 20.5973 323.327 21.061 323.327 21.581C323.327 22.101 323.436 22.5647 323.652 22.972C323.878 23.3793 324.181 23.6957 324.562 23.921C324.952 24.1377 325.39 24.246 325.875 24.246ZM336.871 18.162V25H335.948V18.981H332.672L332.581 20.671C332.511 22.0923 332.347 23.1843 332.087 23.947C331.827 24.7097 331.363 25.091 330.696 25.091C330.514 25.091 330.293 25.0563 330.033 24.987L330.098 24.194C330.254 24.2287 330.362 24.246 330.423 24.246C330.778 24.246 331.047 24.0813 331.229 23.752C331.411 23.4227 331.532 23.0153 331.593 22.53C331.653 22.0447 331.705 21.4033 331.749 20.606L331.866 18.162H336.871ZM342.433 20.58C343.291 20.5887 343.941 20.7793 344.383 21.152C344.833 21.5247 345.059 22.062 345.059 22.764C345.059 23.492 344.816 24.051 344.331 24.441C343.854 24.831 343.161 25.0217 342.251 25.013L339.495 25V18.162H340.418V20.554L342.433 20.58ZM342.199 24.311C342.831 24.3197 343.308 24.194 343.629 23.934C343.958 23.6653 344.123 23.2753 344.123 22.764C344.123 22.2613 343.962 21.8887 343.642 21.646C343.321 21.4033 342.84 21.2777 342.199 21.269L340.418 21.243V24.285L342.199 24.311ZM346.82 18.162H347.743V21.191H352.046V18.162H352.969V25H352.046V21.984H347.743V25H346.82V18.162ZM358.465 20.58C359.323 20.5887 359.978 20.7793 360.428 21.152C360.879 21.5247 361.104 22.062 361.104 22.764C361.104 23.492 360.862 24.051 360.376 24.441C359.891 24.831 359.198 25.0217 358.296 25.013L355.592 25V18.162H356.515V20.554L358.465 20.58ZM362.248 18.162H363.171V25H362.248V18.162ZM358.244 24.311C358.877 24.3197 359.354 24.194 359.674 23.934C360.004 23.6653 360.168 23.2753 360.168 22.764C360.168 22.2613 360.008 21.8887 359.687 21.646C359.367 21.4033 358.886 21.2777 358.244 21.269L356.515 21.243V24.285L358.244 24.311ZM371.779 21.867H366.059C366.111 22.5777 366.384 23.154 366.878 23.596C367.372 24.0293 367.996 24.246 368.75 24.246C369.175 24.246 369.565 24.1723 369.92 24.025C370.276 23.869 370.583 23.6437 370.843 23.349L371.363 23.947C371.06 24.311 370.679 24.5883 370.219 24.779C369.769 24.9697 369.27 25.065 368.724 25.065C368.022 25.065 367.398 24.9177 366.852 24.623C366.315 24.3197 365.895 23.9037 365.591 23.375C365.288 22.8463 365.136 22.2483 365.136 21.581C365.136 20.9137 365.279 20.3157 365.565 19.787C365.86 19.2583 366.259 18.8467 366.761 18.552C367.273 18.2573 367.845 18.11 368.477 18.11C369.11 18.11 369.678 18.2573 370.18 18.552C370.683 18.8467 371.077 19.2583 371.363 19.787C371.649 20.307 371.792 20.905 371.792 21.581L371.779 21.867ZM368.477 18.903C367.819 18.903 367.264 19.1153 366.813 19.54C366.371 19.956 366.12 20.502 366.059 21.178H370.908C370.848 20.502 370.592 19.956 370.141 19.54C369.699 19.1153 369.145 18.903 368.477 18.903ZM218.449 34.162V41H217.526V34.981H213.236V41H212.313V34.162H218.449ZM223.894 41.065C223.235 41.065 222.641 40.9177 222.113 40.623C221.584 40.3197 221.168 39.9037 220.865 39.375C220.561 38.8463 220.41 38.2483 220.41 37.581C220.41 36.9137 220.561 36.3157 220.865 35.787C221.168 35.2583 221.584 34.8467 222.113 34.552C222.641 34.2573 223.235 34.11 223.894 34.11C224.552 34.11 225.146 34.2573 225.675 34.552C226.203 34.8467 226.615 35.2583 226.91 35.787C227.213 36.3157 227.365 36.9137 227.365 37.581C227.365 38.2483 227.213 38.8463 226.91 39.375C226.615 39.9037 226.203 40.3197 225.675 40.623C225.146 40.9177 224.552 41.065 223.894 41.065ZM223.894 40.246C224.379 40.246 224.812 40.1377 225.194 39.921C225.584 39.6957 225.887 39.3793 226.104 38.972C226.32 38.5647 226.429 38.101 226.429 37.581C226.429 37.061 226.32 36.5973 226.104 36.19C225.887 35.7827 225.584 35.4707 225.194 35.254C224.812 35.0287 224.379 34.916 223.894 34.916C223.408 34.916 222.971 35.0287 222.581 35.254C222.199 35.4707 221.896 35.7827 221.671 36.19C221.454 36.5973 221.346 37.061 221.346 37.581C221.346 38.101 221.454 38.5647 221.671 38.972C221.896 39.3793 222.199 39.6957 222.581 39.921C222.971 40.1377 223.408 40.246 223.894 40.246ZM231.82 37.958H230.26V41H229.337V34.162H230.26V37.165H231.833L234.238 34.162H235.239L232.548 37.477L235.434 41H234.342L231.82 37.958ZM240.414 34.11C241.055 34.11 241.636 34.2573 242.156 34.552C242.676 34.838 243.083 35.2453 243.378 35.774C243.673 36.3027 243.82 36.905 243.82 37.581C243.82 38.2657 243.673 38.8723 243.378 39.401C243.083 39.9297 242.676 40.3413 242.156 40.636C241.645 40.922 241.064 41.065 240.414 41.065C239.859 41.065 239.357 40.9523 238.906 40.727C238.464 40.493 238.1 40.155 237.814 39.713V43.522H236.891V34.162H237.775V35.514C238.052 35.0633 238.416 34.7167 238.867 34.474C239.326 34.2313 239.842 34.11 240.414 34.11ZM240.349 40.246C240.826 40.246 241.259 40.1377 241.649 39.921C242.039 39.6957 242.342 39.3793 242.559 38.972C242.784 38.5647 242.897 38.101 242.897 37.581C242.897 37.061 242.784 36.6017 242.559 36.203C242.342 35.7957 242.039 35.4793 241.649 35.254C241.259 35.0287 240.826 34.916 240.349 34.916C239.864 34.916 239.426 35.0287 239.036 35.254C238.655 35.4793 238.351 35.7957 238.126 36.203C237.909 36.6017 237.801 37.061 237.801 37.581C237.801 38.101 237.909 38.5647 238.126 38.972C238.351 39.3793 238.655 39.6957 239.036 39.921C239.426 40.1377 239.864 40.246 240.349 40.246ZM248.676 36.58C249.534 36.5887 250.189 36.7793 250.639 37.152C251.09 37.5247 251.315 38.062 251.315 38.764C251.315 39.492 251.073 40.051 250.587 40.441C250.102 40.831 249.409 41.0217 248.507 41.013L245.803 41V34.162H246.726V36.554L248.676 36.58ZM252.459 34.162H253.382V41H252.459V34.162ZM248.455 40.311C249.088 40.3197 249.565 40.194 249.885 39.934C250.215 39.6653 250.379 39.2753 250.379 38.764C250.379 38.2613 250.219 37.8887 249.898 37.646C249.578 37.4033 249.097 37.2777 248.455 37.269L246.726 37.243V40.285L248.455 40.311ZM260.82 34.981H258.233V41H257.31V34.981H254.723V34.162H260.82V34.981ZM262.155 34.162H263.078V39.596L267.641 34.162H268.46V41H267.537V35.566L262.987 41H262.155V34.162ZM276.357 34.162V41H275.512V38.738H273.367H273.107L271.521 41H270.52L272.223 38.608C271.694 38.4607 271.287 38.2093 271.001 37.854C270.715 37.4987 270.572 37.048 270.572 36.502C270.572 35.7393 270.832 35.1587 271.352 34.76C271.872 34.3613 272.583 34.162 273.484 34.162H276.357ZM271.508 36.528C271.508 37.542 272.154 38.049 273.445 38.049H275.512V34.981H273.51C272.175 34.981 271.508 35.4967 271.508 36.528ZM285.251 41.065C284.575 41.065 283.968 40.9177 283.431 40.623C282.902 40.3283 282.486 39.9167 282.183 39.388C281.88 38.8507 281.728 38.2483 281.728 37.581C281.728 36.9137 281.88 36.3157 282.183 35.787C282.486 35.2583 282.902 34.8467 283.431 34.552C283.968 34.2573 284.575 34.11 285.251 34.11C285.84 34.11 286.365 34.227 286.824 34.461C287.292 34.6863 287.66 35.02 287.929 35.462L287.24 35.93C287.015 35.592 286.729 35.3407 286.382 35.176C286.035 35.0027 285.658 34.916 285.251 34.916C284.757 34.916 284.311 35.0287 283.912 35.254C283.522 35.4707 283.214 35.7827 282.989 36.19C282.772 36.5973 282.664 37.061 282.664 37.581C282.664 38.1097 282.772 38.5777 282.989 38.985C283.214 39.3837 283.522 39.6957 283.912 39.921C284.311 40.1377 284.757 40.246 285.251 40.246C285.658 40.246 286.035 40.1637 286.382 39.999C286.729 39.8343 287.015 39.583 287.24 39.245L287.929 39.713C287.66 40.155 287.292 40.493 286.824 40.727C286.356 40.9523 285.832 41.065 285.251 41.065ZM298.696 40.168V41H292.313V40.337L296.096 36.632C296.572 36.164 296.893 35.761 297.058 35.423C297.231 35.0763 297.318 34.7297 297.318 34.383C297.318 33.8457 297.131 33.4297 296.759 33.135C296.395 32.8317 295.87 32.68 295.186 32.68C294.12 32.68 293.292 33.018 292.703 33.694L292.04 33.122C292.395 32.706 292.846 32.3853 293.392 32.16C293.946 31.9347 294.57 31.822 295.264 31.822C296.191 31.822 296.923 32.043 297.461 32.485C298.007 32.9183 298.28 33.5163 298.28 34.279C298.28 34.747 298.176 35.1977 297.968 35.631C297.76 36.0643 297.365 36.5627 296.785 37.126L293.691 40.168H298.696ZM303.447 41.078C302.745 41.078 302.116 40.8917 301.562 40.519C301.016 40.1463 300.587 39.6133 300.275 38.92C299.971 38.218 299.82 37.3947 299.82 36.45C299.82 35.5053 299.971 34.6863 300.275 33.993C300.587 33.291 301.016 32.7537 301.562 32.381C302.116 32.0083 302.745 31.822 303.447 31.822C304.149 31.822 304.773 32.0083 305.319 32.381C305.873 32.7537 306.307 33.291 306.619 33.993C306.931 34.6863 307.087 35.5053 307.087 36.45C307.087 37.3947 306.931 38.218 306.619 38.92C306.307 39.6133 305.873 40.1463 305.319 40.519C304.773 40.8917 304.149 41.078 303.447 41.078ZM303.447 40.22C303.975 40.22 304.439 40.0727 304.838 39.778C305.245 39.4833 305.561 39.0543 305.787 38.491C306.012 37.9277 306.125 37.2473 306.125 36.45C306.125 35.6527 306.012 34.9723 305.787 34.409C305.561 33.8457 305.245 33.4167 304.838 33.122C304.439 32.8273 303.975 32.68 303.447 32.68C302.918 32.68 302.45 32.8273 302.043 33.122C301.644 33.4167 301.332 33.8457 301.107 34.409C300.881 34.9723 300.769 35.6527 300.769 36.45C300.769 37.2473 300.881 37.9277 301.107 38.491C301.332 39.0543 301.644 39.4833 302.043 39.778C302.45 40.0727 302.918 40.22 303.447 40.22ZM310.924 31.9V41H309.988V32.732H307.843V31.9H310.924ZM316.869 35.553C317.467 35.553 317.996 35.6657 318.455 35.891C318.923 36.1163 319.287 36.437 319.547 36.853C319.807 37.2603 319.937 37.737 319.937 38.283C319.937 38.8377 319.803 39.3273 319.534 39.752C319.265 40.1767 318.893 40.506 318.416 40.74C317.948 40.9653 317.419 41.078 316.83 41.078C315.625 41.078 314.702 40.6837 314.061 39.895C313.42 39.0977 313.099 37.9753 313.099 36.528C313.099 35.514 313.272 34.656 313.619 33.954C313.966 33.252 314.451 32.7233 315.075 32.368C315.699 32.004 316.427 31.822 317.259 31.822C318.16 31.822 318.88 31.9867 319.417 32.316L319.04 33.07C318.607 32.784 318.017 32.641 317.272 32.641C316.267 32.641 315.478 32.9617 314.906 33.603C314.334 34.2357 314.048 35.1587 314.048 36.372C314.048 36.5887 314.061 36.8357 314.087 37.113C314.312 36.619 314.672 36.2377 315.166 35.969C315.66 35.6917 316.228 35.553 316.869 35.553ZM316.791 40.285C317.45 40.285 317.983 40.1073 318.39 39.752C318.806 39.388 319.014 38.907 319.014 38.309C319.014 37.711 318.806 37.2343 318.39 36.879C317.983 36.5237 317.428 36.346 316.726 36.346C316.267 36.346 315.859 36.4327 315.504 36.606C315.157 36.7793 314.884 37.0177 314.685 37.321C314.486 37.6243 314.386 37.9623 314.386 38.335C314.386 38.6817 314.477 39.0023 314.659 39.297C314.85 39.5917 315.127 39.83 315.491 40.012C315.855 40.194 316.288 40.285 316.791 40.285ZM329.896 34.981H325.983V41H325.06V34.162H329.896V34.981ZM333.734 41.065C333.075 41.065 332.481 40.9177 331.953 40.623C331.424 40.3197 331.008 39.9037 330.705 39.375C330.401 38.8463 330.25 38.2483 330.25 37.581C330.25 36.9137 330.401 36.3157 330.705 35.787C331.008 35.2583 331.424 34.8467 331.953 34.552C332.481 34.2573 333.075 34.11 333.734 34.11C334.392 34.11 334.986 34.2573 335.515 34.552C336.043 34.8467 336.455 35.2583 336.75 35.787C337.053 36.3157 337.205 36.9137 337.205 37.581C337.205 38.2483 337.053 38.8463 336.75 39.375C336.455 39.9037 336.043 40.3197 335.515 40.623C334.986 40.9177 334.392 41.065 333.734 41.065ZM333.734 40.246C334.219 40.246 334.652 40.1377 335.034 39.921C335.424 39.6957 335.727 39.3793 335.944 38.972C336.16 38.5647 336.269 38.101 336.269 37.581C336.269 37.061 336.16 36.5973 335.944 36.19C335.727 35.7827 335.424 35.4707 335.034 35.254C334.652 35.0287 334.219 34.916 333.734 34.916C333.248 34.916 332.811 35.0287 332.421 35.254C332.039 35.4707 331.736 35.7827 331.511 36.19C331.294 36.5973 331.186 37.061 331.186 37.581C331.186 38.101 331.294 38.5647 331.511 38.972C331.736 39.3793 332.039 39.6957 332.421 39.921C332.811 40.1377 333.248 40.246 333.734 40.246ZM345.808 40.194V42.651H344.937V41H338.814V42.651H337.943V40.194H338.333C338.793 40.168 339.105 39.83 339.269 39.18C339.434 38.53 339.547 37.62 339.607 36.45L339.698 34.162H344.742V40.194H345.808ZM340.452 36.502C340.409 37.4727 340.327 38.2743 340.205 38.907C340.084 39.531 339.867 39.96 339.555 40.194H343.819V34.981H340.53L340.452 36.502ZM349.96 34.11C350.853 34.11 351.537 34.3353 352.014 34.786C352.491 35.228 352.729 35.8867 352.729 36.762V41H351.845V39.934C351.637 40.2893 351.329 40.5667 350.922 40.766C350.523 40.9653 350.047 41.065 349.492 41.065C348.729 41.065 348.123 40.883 347.672 40.519C347.221 40.155 346.996 39.674 346.996 39.076C346.996 38.4953 347.204 38.0273 347.62 37.672C348.045 37.3167 348.716 37.139 349.635 37.139H351.806V36.723C351.806 36.1337 351.641 35.6873 351.312 35.384C350.983 35.072 350.502 34.916 349.869 34.916C349.436 34.916 349.02 34.9897 348.621 35.137C348.222 35.2757 347.88 35.4707 347.594 35.722L347.178 35.033C347.525 34.7383 347.941 34.513 348.426 34.357C348.911 34.1923 349.423 34.11 349.96 34.11ZM349.635 40.337C350.155 40.337 350.601 40.22 350.974 39.986C351.347 39.7433 351.624 39.3967 351.806 38.946V37.828H349.661C348.491 37.828 347.906 38.2353 347.906 39.05C347.906 39.4487 348.058 39.765 348.361 39.999C348.664 40.2243 349.089 40.337 349.635 40.337Z" fill="white"/>
<line opacity="0.17" x1="196.5" y1="4" x2="196.5" y2="52" stroke="#717171"/>
</svg>
