<svg width="23" height="23" fill="none" xmlns="http://www.w3.org/2000/svg"><g clip-path="url(#clip0)" fill="#EF233C"><path d="M18.486 15.215c-.752-.742-1.69-.742-2.436 0-.57.565-1.14 1.13-1.7 1.704-.152.158-.282.192-.468.086-.369-.2-.761-.363-1.115-.584-1.652-1.038-3.035-2.373-4.26-3.876-.608-.747-1.149-1.546-1.527-2.446-.076-.182-.062-.302.086-.45.57-.55 1.125-1.115 1.685-1.68.78-.785.78-1.704-.005-2.493-.445-.45-.89-.89-1.335-1.34-.46-.46-.914-.924-1.379-1.379-.75-.732-1.689-.732-2.436.005-.574.565-1.124 1.144-1.708 1.699-.541.512-.814 1.139-.871 1.871-.091 1.192.2 2.317.612 3.413.843 2.268 2.125 4.283 3.68 6.13 2.102 2.5 4.61 4.476 7.544 5.902 1.32.641 2.69 1.134 4.178 1.216 1.024.057 1.914-.201 2.628-1 .488-.546 1.038-1.044 1.555-1.566.766-.775.77-1.713.01-2.479-.91-.914-1.824-1.823-2.738-2.733zm-.914-3.814l1.766-.301a7.894 7.894 0 00-2.207-4.26 7.85 7.85 0 00-4.498-2.245l-.25 1.776a6.091 6.091 0 013.485 1.737 6.09 6.09 0 011.704 3.293zm2.761-7.677A13.022 13.022 0 0012.867 0l-.249 1.776c2.46.344 4.69 1.46 6.452 3.216a11.283 11.283 0 013.163 6.102L24 10.793a13.118 13.118 0 00-3.667-7.07z"/></g><defs><clipPath id="clip0"><path fill="#fff" d="M0 0h23v23H0z"/></clipPath></defs></svg>