<svg width="23" height="23" viewBox="0 0 23 23" fill="none" xmlns="http://www.w3.org/2000/svg">
<g clip-path="url(#clip0)">
<path d="M18.4859 15.2153C17.7345 14.4734 16.7964 14.4734 16.0498 15.2153C15.4802 15.78 14.9107 16.3448 14.3507 16.9191C14.1975 17.0771 14.0683 17.1106 13.8817 17.0053C13.5131 16.8043 13.1207 16.6415 12.7665 16.4214C11.1153 15.3828 9.73213 14.0475 8.50689 12.5446C7.89906 11.798 7.35823 10.9987 6.98013 10.099C6.90355 9.91708 6.91791 9.79743 7.06628 9.64906C7.63582 9.09866 8.19101 8.5339 8.75098 7.96915C9.53111 7.18423 9.53111 6.2653 8.74619 5.4756C8.30109 5.02571 7.85598 4.58539 7.41087 4.13549C6.95141 3.67603 6.49673 3.21178 6.03248 2.7571C5.28107 2.02483 4.343 2.02483 3.59637 2.76189C3.02204 3.32665 2.47164 3.90576 1.88774 4.46095C1.34691 4.97306 1.0741 5.60004 1.01667 6.33231C0.925733 7.52404 1.21768 8.64877 1.62929 9.74478C2.47164 12.0134 3.75431 14.0283 5.30978 15.8758C7.41088 18.3741 9.91878 20.3507 12.8527 21.777C14.1736 22.4183 15.5424 22.9113 17.0309 22.9927C18.0551 23.0501 18.9453 22.7916 19.6585 21.9924C20.1466 21.4468 20.697 20.949 21.2139 20.4273C21.9797 19.652 21.9845 18.7139 21.2235 17.9481C20.3142 17.034 19.4 16.1246 18.4859 15.2153Z" fill="#EF233C"/>
<path d="M17.5717 11.401L19.3378 11.0995C19.0602 9.47702 18.2944 8.00769 17.1314 6.83989C15.9014 5.60986 14.3459 4.83452 12.6325 4.59521L12.3836 6.37085C13.7094 6.55751 14.9154 7.15577 15.8679 8.1082C16.7677 9.00798 17.3563 10.1471 17.5717 11.401Z" fill="#EF233C"/>
<path d="M20.3333 3.72357C18.2945 1.6847 15.7148 0.397245 12.867 0L12.6182 1.77564C15.0782 2.12023 17.3085 3.23539 19.0698 4.99188C20.7401 6.66223 21.8362 8.77289 22.2334 11.0941L23.9995 10.7926C23.5352 8.10284 22.2669 5.66194 20.3333 3.72357Z" fill="#EF233C"/>
</g>
<defs>
<clipPath id="clip0">
<rect width="23" height="23" fill="white"/>
</clipPath>
</defs>
</svg>
