<svg width="35" height="35" fill="none" xmlns="http://www.w3.org/2000/svg"><path d="M31.336 26.023a1.367 1.367 0 00-1.913.281c-.247.333-.513.66-.788.972a1.368 1.368 0 002.049 1.811c.326-.369.64-.756.933-1.15a1.367 1.367 0 00-.28-1.914zm2.287-6.412a1.367 1.367 0 00-1.627 1.045c-.088.406-.195.813-.317 1.21a1.367 1.367 0 002.612.806c.145-.47.272-.952.377-1.434a1.367 1.367 0 00-1.045-1.627zm-8.867 10.791c-.363.202-.74.392-1.117.563a1.367 1.367 0 001.125 2.492c.449-.203.894-.427 1.325-.668a1.367 1.367 0 10-1.333-2.387zM16.133 6.563v10.371l-5.014 5.014a1.367 1.367 0 001.934 1.933l5.414-5.414c.256-.256.4-.604.4-.966V6.562a1.367 1.367 0 10-2.734 0z" fill="#EF233C"/><path d="M33.633 2.94c-.755 0-1.367.612-1.367 1.367v3.796A17.541 17.541 0 0017.5 0C12.826 0 8.431 1.82 5.126 5.126A17.386 17.386 0 000 17.5c0 4.674 1.82 9.069 5.126 12.374A17.386 17.386 0 0017.5 35l.034-.002.034.002c.493 0 .99-.02 1.48-.062a1.367 1.367 0 10-.229-2.724c-.413.034-.834.052-1.25.052l-.035.001-.034-.001c-8.142 0-14.766-6.624-14.766-14.766S9.358 2.734 17.5 2.734A14.801 14.801 0 0130.21 9.98h-3.759a1.367 1.367 0 000 2.735h4.174a4.348 4.348 0 002.398-.718A4.374 4.374 0 0035 8.34V4.307c0-.755-.612-1.368-1.367-1.368z" fill="#EF233C"/></svg>