<svg width="35" height="35" viewBox="0 0 35 35" fill="none" xmlns="http://www.w3.org/2000/svg">
<path d="M31.3363 26.0233C30.7305 25.5725 29.8741 25.6984 29.4234 26.3042C29.1755 26.6374 28.9103 26.9643 28.635 27.2757C28.1349 27.8415 28.1881 28.7057 28.7537 29.2059C29.0139 29.4359 29.3369 29.5488 29.6587 29.5488C30.0369 29.5488 30.4134 29.3927 30.6836 29.087C31.0096 28.7183 31.3237 28.3311 31.6172 27.9365C32.0679 27.3306 31.9422 26.474 31.3363 26.0233Z" fill="#EF233C"/>
<path d="M33.6228 19.6112C32.8855 19.4506 32.1567 19.9185 31.9961 20.6564C31.9078 21.0623 31.801 21.4689 31.6785 21.8652C31.4556 22.5868 31.8598 23.3524 32.5812 23.5753C32.7156 23.6168 32.8515 23.6366 32.9852 23.6366C33.569 23.6366 34.1096 23.2596 34.291 22.6724C34.4364 22.2022 34.5631 21.7196 34.668 21.2381C34.8285 20.5002 34.3606 19.7718 33.6228 19.6112Z" fill="#EF233C"/>
<path d="M24.7556 30.4017C24.3926 30.6044 24.0168 30.7938 23.6386 30.9646C22.9504 31.2754 22.6445 32.0853 22.9553 32.7736C23.1836 33.2792 23.6812 33.5785 24.2021 33.5785C24.3902 33.5785 24.5814 33.5395 24.764 33.457C25.2127 33.2544 25.6582 33.0298 26.0886 32.7894C26.748 32.4213 26.984 31.5883 26.6158 30.929C26.2478 30.2697 25.4149 30.0336 24.7556 30.4017Z" fill="#EF233C"/>
<path d="M16.1328 6.56299V16.9342L11.1194 21.9475C10.5855 22.4815 10.5855 23.3471 11.1194 23.881C11.3864 24.148 11.7362 24.2815 12.0862 24.2815C12.4361 24.2815 12.786 24.148 13.053 23.881L18.4668 18.4672C18.7232 18.2109 18.8672 17.8631 18.8672 17.5005V6.56299C18.8672 5.80789 18.2551 5.1958 17.5 5.1958C16.7449 5.1958 16.1328 5.80789 16.1328 6.56299Z" fill="#EF233C"/>
<path d="M33.6328 2.93945C32.8777 2.93945 32.2656 3.55154 32.2656 4.30664V8.10305C29.0834 3.11227 23.5259 0 17.5 0C12.8256 0 8.43097 1.82034 5.12559 5.12559C1.82034 8.43097 0 12.8256 0 17.5C0 22.1744 1.82034 26.569 5.12559 29.8744C8.43097 33.1797 12.8256 35 17.5 35C17.5116 35 17.5227 34.9986 17.5342 34.9983C17.5457 34.9986 17.5568 35 17.5684 35C18.0611 35 18.5587 34.9792 19.0475 34.9383C19.7999 34.8753 20.3588 34.2143 20.2958 33.4618C20.2327 32.7094 19.5726 32.1502 18.8193 32.2135C18.4061 32.2481 17.9853 32.2656 17.5684 32.2656C17.5568 32.2656 17.5457 32.2671 17.5342 32.2673C17.5227 32.2671 17.5116 32.2656 17.5 32.2656C9.35819 32.2656 2.73438 25.6418 2.73438 17.5C2.73438 9.35819 9.35819 2.73438 17.5 2.73438C22.7471 2.73438 27.5732 5.53116 30.2105 9.98047H26.4512C25.6961 9.98047 25.084 10.5926 25.084 11.3477C25.084 12.1028 25.6961 12.7148 26.4512 12.7148H30.625C31.4576 12.7148 32.2366 12.4809 32.8998 12.0755C32.9425 12.0511 32.9835 12.025 33.0226 11.9967C34.2124 11.2139 35 9.86747 35 8.33984V4.30664C35 3.55154 34.3879 2.93945 33.6328 2.93945Z" fill="#EF233C"/>
</svg>
