<svg width="25" height="37" viewBox="0 0 25 37" fill="none" xmlns="http://www.w3.org/2000/svg">
<path d="M12.3334 0C5.53287 0 0 5.53287 0 12.3334C0 14.3749 0.510412 16.399 1.48072 18.1944L11.6589 36.6025C11.7944 36.848 12.0526 37 12.3334 37C12.6141 37 12.8723 36.848 13.0078 36.6025L23.1898 18.1883C24.1563 16.399 24.6667 14.3748 24.6667 12.3333C24.6667 5.53287 19.1338 0 12.3334 0ZM12.3334 18.5C8.93312 18.5 6.16672 15.7336 6.16672 12.3334C6.16672 8.93312 8.93312 6.16671 12.3334 6.16671C15.7336 6.16671 18.5 8.93312 18.5 12.3334C18.5 15.7336 15.7336 18.5 12.3334 18.5Z" fill="#EF233C"/>
</svg>
